<svg xmlns="http://www.w3.org/2000/svg" viewBox="0 0 320 220" fill="none" stroke="#4A4036" stroke-width="1.5" stroke-linecap="round" stroke-linejoin="round">
  
  <line x1="10" y1="200" x2="310" y2="200" stroke="#A89C8A"></line>

  
  <path d="M70 195 l180 0 l10 -8 l-200 0 z"></path>
  <line x1="80" y1="191" x2="240" y2="191" stroke="#A89C8A" stroke-width="1"></line>

  
  <path d="M80 187 l160 0 l0 -100 l-160 0 z"></path>
  
  <line x1="80" y1="100" x2="240" y2="100" stroke="#A89C8A" stroke-width="1"></line>
  <circle cx="88" cy="93" r="2" stroke="#A89C8A" stroke-width="1"></circle>
  <circle cx="96" cy="93" r="2" stroke="#A89C8A" stroke-width="1"></circle>
  <circle cx="104" cy="93" r="2" stroke="#A89C8A" stroke-width="1"></circle>
  
  <line x1="92" y1="115" x2="160" y2="115" stroke="#A89C8A" stroke-width="1"></line>
  <line x1="92" y1="125" x2="220" y2="125" stroke="#A89C8A" stroke-width="1"></line>
  <line x1="92" y1="135" x2="190" y2="135" stroke="#A89C8A" stroke-width="1"></line>
  
  <circle cx="180" cy="160" r="10" fill="#4A6B3A" stroke="#4A6B3A"></circle>
  <circle cx="155" cy="170" r="5" stroke="#4A4036"></circle>
  <circle cx="205" cy="170" r="5" stroke="#4A4036"></circle>
  <line x1="172" y1="165" x2="160" y2="170" stroke="#A89C8A" stroke-dasharray="2 3"></line>
  <line x1="188" y1="165" x2="200" y2="170" stroke="#A89C8A" stroke-dasharray="2 3"></line>

  
  <path d="M268 198 h28 v-22 h-28 z"></path>
  <path d="M296 182 a5 5 0 0 1 0 8"></path>
  <path d="M274 170 c1 -3 -2 -5 0 -8" stroke="#A89C8A"></path>
  <path d="M282 170 c1 -3 -2 -5 0 -8" stroke="#A89C8A"></path>
  <path d="M290 170 c1 -3 -2 -5 0 -8" stroke="#A89C8A"></path>

  
  <rect x="14" y="180" width="42" height="20" rx="1"></rect>
  <line x1="20" y1="186" x2="50" y2="186" stroke="#A89C8A" stroke-width="1"></line>
  <line x1="20" y1="192" x2="44" y2="192" stroke="#A89C8A" stroke-width="1"></line>
  <path d="M22 175 l30 -2 l1 4 l-30 2 z" stroke="#4A4036"></path>
  <path d="M52 173 l4 0 l1 4 l-4 0 z" fill="#4A6B3A" stroke="#4A6B3A"></path>

  
  <rect x="200" y="40" width="50" height="32" rx="1" stroke="#A89C8A"></rect>
  <line x1="206" y1="50" x2="244" y2="50" stroke="#A89C8A" stroke-width="1"></line>
  <line x1="206" y1="58" x2="234" y2="58" stroke="#A89C8A" stroke-width="1"></line>
  <line x1="206" y1="66" x2="240" y2="66" stroke="#A89C8A" stroke-width="1"></line>

  
  <path d="M8 168 v-10" stroke="#A89C8A"></path>
  <path d="M8 158 q-6 -4 -4 -10" stroke="#A89C8A"></path>
  <path d="M8 158 q6 -4 4 -10" stroke="#A89C8A"></path>
</svg>